<svg width="209" height="46" viewBox="0 0 209 46" fill="none" xmlns="http://www.w3.org/2000/svg">
<path d="M67.3361 11.9277C71.2581 11.9277 74.2617 12.6254 76.3508 14.0208C78.4399 15.4161 79.4844 17.5841 79.4844 20.5285C79.4844 22.3654 79.0627 23.8553 78.2231 24.9984C77.3796 26.1455 76.1655 27.0442 74.5809 27.6945C75.1091 28.3528 75.661 29.0978 76.2404 29.9413C76.8198 30.7809 77.3914 31.6638 77.959 32.5823C78.5227 33.5007 79.0705 34.4546 79.5987 35.4518C80.1269 36.4451 80.6196 37.4187 81.069 38.3766H74.4903C74.0094 37.5212 73.5246 36.6541 73.0319 35.7711C72.5391 34.8882 72.0385 34.0368 71.5182 33.209C71.0019 32.3773 70.4894 31.5889 69.9849 30.8519C69.4764 30.1069 68.9719 29.4368 68.4674 28.8298H65.5623V38.3766H59.6774V12.6057C60.9624 12.3574 62.2868 12.18 63.6585 12.0775C65.0263 11.979 66.2521 11.9277 67.3361 11.9277ZM67.6751 16.9455C67.2494 16.9455 66.8631 16.9613 66.5241 16.9849C66.1851 17.0086 65.8658 17.0322 65.5623 17.0598V24.151H67.2218C69.4331 24.151 71.0216 23.875 71.9755 23.3232C72.9294 22.7714 73.4102 21.8293 73.4102 20.4931C73.4102 19.212 72.9254 18.3015 71.9597 17.7615C70.9861 17.2175 69.5592 16.9455 67.6751 16.9455Z" fill="#01091A"/>
<path d="M90.6159 12.7945C90.6159 13.8273 90.2809 14.6353 89.6147 15.2266C88.9486 15.8178 88.1642 16.1135 87.2576 16.1135C86.3549 16.1135 85.5666 15.8178 84.9005 15.2266C84.2343 14.6353 83.9032 13.8273 83.9032 12.7945C83.9032 11.7618 84.2343 10.9538 84.9005 10.3586C85.5666 9.76731 86.3549 9.47168 87.2576 9.47168C88.1642 9.47168 88.9486 9.77125 89.6147 10.3586C90.2809 10.9538 90.6159 11.7657 90.6159 12.7945ZM90.0877 38.3762H84.4669V18.5297H90.0877V38.3762Z" fill="#01091A"/>
<path d="M101.065 34.3403C102.093 34.3403 102.823 34.2418 103.252 34.0408C103.682 33.8397 103.895 33.4495 103.895 32.8701C103.895 32.4168 103.619 32.0187 103.067 31.6836C102.515 31.3446 101.672 30.9583 100.54 30.5326C99.6574 30.2055 98.8612 29.8665 98.1438 29.5117C97.4264 29.1609 96.8155 28.7392 96.3149 28.2504C95.8103 27.7577 95.4201 27.1743 95.1442 26.4924C94.8683 25.8144 94.7303 24.9985 94.7303 24.0406C94.7303 22.1762 95.4201 20.706 96.8076 19.6259C98.1911 18.5459 100.091 18.002 102.507 18.002C103.713 18.002 104.872 18.1084 105.976 18.3252C107.08 18.542 107.963 18.7706 108.617 19.0228L107.639 23.4021C106.985 23.1735 106.272 22.9724 105.507 22.799C104.742 22.6256 103.879 22.5349 102.925 22.5349C101.163 22.5349 100.284 23.0276 100.284 24.0052C100.284 24.2338 100.32 24.4348 100.395 24.6083C100.469 24.7817 100.623 24.9551 100.848 25.1167C101.076 25.2783 101.384 25.4557 101.77 25.6488C102.16 25.838 102.657 26.047 103.26 26.2756C104.494 26.7328 105.511 27.1822 106.319 27.6276C107.123 28.0691 107.758 28.55 108.223 29.0663C108.688 29.5787 109.015 30.1503 109.204 30.781C109.393 31.4077 109.488 32.1369 109.488 32.9647C109.488 34.9198 108.751 36.4018 107.281 37.407C105.81 38.4081 103.729 38.9127 101.037 38.9127C99.279 38.9127 97.8127 38.7629 96.642 38.4594C95.4713 38.1559 94.6633 37.9036 94.2061 37.7026L95.1481 33.1381C96.106 33.5165 97.0874 33.8121 98.0926 34.025C99.0898 34.2299 100.083 34.3403 101.065 34.3403Z" fill="#01091A"/>
<path d="M119.292 25.6567C119.844 25.0537 120.415 24.4309 121.006 23.7805C121.598 23.1301 122.165 22.4837 122.721 21.8491C123.273 21.2105 123.797 20.6074 124.286 20.028C124.775 19.4525 125.196 18.9519 125.547 18.5301H132.232C130.9 20.0595 129.599 21.5219 128.326 22.9133C127.057 24.3087 125.665 25.7435 124.156 27.2255C124.913 27.9035 125.689 28.7194 126.497 29.6655C127.301 30.6115 128.082 31.589 128.839 32.5942C129.595 33.5993 130.285 34.6084 130.916 35.6174C131.543 36.6265 132.071 37.5449 132.5 38.3766H126.036C125.634 37.7184 125.173 36.997 124.66 36.2008C124.144 35.4046 123.596 34.6084 123.021 33.82C122.445 33.0238 121.834 32.2631 121.196 31.5338C120.557 30.8046 119.922 30.1818 119.296 29.6773V38.3766H113.675V10.0003L119.296 9.09766V25.6567H119.292Z" fill="#01091A"/>
<path d="M153.36 33.3194V38.3766H135.891V12.2273H141.775V33.3194H153.36Z" fill="#01091A"/>
<path d="M162.907 12.7945C162.907 13.8273 162.572 14.6353 161.905 15.2266C161.239 15.8178 160.455 16.1135 159.548 16.1135C158.646 16.1135 157.857 15.8178 157.191 15.2266C156.525 14.6353 156.194 13.8273 156.194 12.7945C156.194 11.7618 156.525 10.9538 157.191 10.3586C157.857 9.76731 158.646 9.47168 159.548 9.47168C160.455 9.47168 161.239 9.77125 161.905 10.3586C162.572 10.9538 162.907 11.7657 162.907 12.7945ZM162.378 38.3762H156.758V18.5297H162.378V38.3762Z" fill="#01091A"/>
<path d="M167.66 19.2121C168.614 18.9362 169.848 18.676 171.358 18.4395C172.867 18.1991 174.452 18.0808 176.115 18.0808C177.798 18.0808 179.202 18.3015 180.321 18.7391C181.44 19.1805 182.327 19.8033 182.982 20.6074C183.636 21.4155 184.101 22.3694 184.377 23.477C184.653 24.5846 184.791 25.8184 184.791 27.1743V38.3806H179.17V27.8562C179.17 26.043 178.93 24.762 178.453 24.0052C177.972 23.2523 177.081 22.8739 175.772 22.8739C175.37 22.8739 174.945 22.8936 174.487 22.9291C174.034 22.9646 173.632 23.0119 173.281 23.0592V38.3766H167.66V19.2121Z" fill="#01091A"/>
<path d="M195.508 25.6567C196.06 25.0537 196.631 24.4309 197.223 23.7805C197.814 23.1301 198.381 22.4837 198.937 21.8491C199.489 21.2105 200.013 20.6074 200.502 20.028C200.991 19.4525 201.413 18.9519 201.763 18.5301H208.449C207.116 20.0595 205.816 21.5219 204.542 22.9133C203.273 24.3087 201.882 25.7435 200.372 27.2255C201.129 27.9035 201.905 28.7194 202.713 29.6655C203.518 30.6115 204.298 31.589 205.055 32.5942C205.812 33.6032 206.501 34.6084 207.132 35.6174C207.759 36.6265 208.287 37.5449 208.717 38.3766H202.252C201.85 37.7184 201.389 36.997 200.877 36.2008C200.36 35.4046 199.812 34.6084 199.237 33.82C198.661 33.0238 198.05 32.2631 197.412 31.5338C196.773 30.8046 196.139 30.1818 195.512 29.6773V38.3766H189.891V10.0003L195.512 9.09766V25.6567H195.508Z" fill="#01091A"/>
<path d="M18.5057 40.1814L23.4959 35.1912L29.8381 28.849L23.4959 22.5068L15.7386 14.7495H3.05029L17.1498 28.849C17.1498 28.849 24.3197 34.3674 18.5057 40.1814Z" fill="#FF7798"/>
<path d="M17.1504 28.8496L0 45.9999H12.6883C12.6883 45.9999 12.6884 46 13.93 44.7583L14.3005 44.3878C14.403 44.2853 14.5134 44.1749 14.6277 44.0606L15.077 43.6113C15.1243 43.564 15.1677 43.5206 15.215 43.4733L18.5024 40.1859C24.3203 34.368 17.1504 28.8496 17.1504 28.8496Z" fill="url(#paint0_linear_2002_227)"/>
<path d="M32.1138 25.4319L27.1236 20.4417L20.7814 14.0995L27.1236 7.75727L34.8809 0H47.5692L33.4697 14.0995C33.4697 14.0995 26.2998 19.6179 32.1138 25.4319Z" fill="#1DD692"/>
<path d="M33.469 14.0991L50.6194 31.2495H37.931C37.931 31.2495 37.931 31.2495 36.6894 30.0079L36.3189 29.6373C36.2164 29.5348 36.106 29.4245 35.9917 29.3102L35.5424 28.8608C35.4951 28.8135 35.4517 28.7702 35.4044 28.7229L32.117 25.4355C26.2991 19.6175 33.469 14.0991 33.469 14.0991Z" fill="url(#paint1_linear_2002_227)"/>
<defs>
<linearGradient id="paint0_linear_2002_227" x1="0" y1="37.4249" x2="20.7797" y2="37.4249" gradientUnits="userSpaceOnUse">
<stop stop-color="#00AAFF"/>
<stop offset="1" stop-color="#0080FF"/>
</linearGradient>
<linearGradient id="paint1_linear_2002_227" x1="29.8381" y1="22.6749" x2="50.6178" y2="22.6749" gradientUnits="userSpaceOnUse">
<stop stop-color="#00AAFF"/>
<stop offset="1" stop-color="#0080FF"/>
</linearGradient>
</defs>
</svg>
